<mxfile host="app.diagrams.net" modified="2024-04-03T07:07:43.180Z" agent="Mozilla/5.0 (Windows NT 10.0; Win64; x64) AppleWebKit/537.36 (KHTML, like Gecko) Chrome/123.0.0.0 Safari/537.36" etag="bDX3tm1ziprAAr-m7sV0" version="24.2.1" type="github">
  <diagram name="Σελίδα-1" id="R1rE6CsIk4Tn38kf-Vfa">
    <mxGraphModel dx="1877" dy="557" grid="1" gridSize="10" guides="1" tooltips="1" connect="1" arrows="1" fold="1" page="1" pageScale="1" pageWidth="827" pageHeight="1169" math="0" shadow="0">
      <root>
        <mxCell id="0" />
        <mxCell id="1" parent="0" />
        <mxCell id="Zs5-TfqRUspG0sK_YeRj-2" style="edgeStyle=orthogonalEdgeStyle;rounded=0;orthogonalLoop=1;jettySize=auto;html=1;" parent="1" source="Zs5-TfqRUspG0sK_YeRj-1" edge="1">
          <mxGeometry relative="1" as="geometry">
            <mxPoint x="320" y="560" as="targetPoint" />
          </mxGeometry>
        </mxCell>
        <mxCell id="Zs5-TfqRUspG0sK_YeRj-1" value="" style="rounded=0;whiteSpace=wrap;html=1;" parent="1" vertex="1">
          <mxGeometry x="120" y="450" width="120" height="60" as="geometry" />
        </mxCell>
        <mxCell id="Zs5-TfqRUspG0sK_YeRj-3" value="" style="ellipse;whiteSpace=wrap;html=1;aspect=fixed;" parent="1" vertex="1">
          <mxGeometry x="490" y="470" width="80" height="80" as="geometry" />
        </mxCell>
        <mxCell id="Zs5-TfqRUspG0sK_YeRj-4" value="" style="shape=cylinder3;whiteSpace=wrap;html=1;boundedLbl=1;backgroundOutline=1;size=15;" parent="1" vertex="1">
          <mxGeometry x="560" y="600" width="60" height="80" as="geometry" />
        </mxCell>
        <mxCell id="pm6gfdA33jTRaZu8KEkV-1" value="Vertical Container" style="swimlane;whiteSpace=wrap;html=1;" vertex="1" parent="1">
          <mxGeometry x="70" y="730" width="200" height="200" as="geometry" />
        </mxCell>
        <mxCell id="pm6gfdA33jTRaZu8KEkV-2" value="Vertical Container" style="swimlane;whiteSpace=wrap;html=1;" vertex="1" parent="1">
          <mxGeometry x="150" y="680" width="200" height="200" as="geometry" />
        </mxCell>
        <mxCell id="pm6gfdA33jTRaZu8KEkV-3" value="" style="shape=note;whiteSpace=wrap;html=1;backgroundOutline=1;darkOpacity=0.05;" vertex="1" parent="1">
          <mxGeometry x="414" y="670" width="80" height="100" as="geometry" />
        </mxCell>
        <mxCell id="pm6gfdA33jTRaZu8KEkV-4" value="Actor" style="shape=umlActor;verticalLabelPosition=bottom;verticalAlign=top;html=1;outlineConnect=0;" vertex="1" parent="1">
          <mxGeometry x="240" y="585" width="30" height="60" as="geometry" />
        </mxCell>
        <mxCell id="pm6gfdA33jTRaZu8KEkV-5" value="" style="shape=cube;whiteSpace=wrap;html=1;boundedLbl=1;backgroundOutline=1;darkOpacity=0.05;darkOpacity2=0.1;" vertex="1" parent="1">
          <mxGeometry x="80" y="600" width="120" height="80" as="geometry" />
        </mxCell>
        <mxCell id="pm6gfdA33jTRaZu8KEkV-6" value="" style="shape=document;whiteSpace=wrap;html=1;boundedLbl=1;" vertex="1" parent="1">
          <mxGeometry x="-30" y="620" width="120" height="80" as="geometry" />
        </mxCell>
        <mxCell id="pm6gfdA33jTRaZu8KEkV-7" value="" style="shape=cylinder3;whiteSpace=wrap;html=1;boundedLbl=1;backgroundOutline=1;size=15;" vertex="1" parent="1">
          <mxGeometry x="354" y="600" width="60" height="80" as="geometry" />
        </mxCell>
        <mxCell id="pm6gfdA33jTRaZu8KEkV-8" value="" style="shape=internalStorage;whiteSpace=wrap;html=1;backgroundOutline=1;" vertex="1" parent="1">
          <mxGeometry x="470" y="520" width="80" height="80" as="geometry" />
        </mxCell>
        <mxCell id="pm6gfdA33jTRaZu8KEkV-9" value="" style="triangle;whiteSpace=wrap;html=1;" vertex="1" parent="1">
          <mxGeometry x="-60" y="575" width="60" height="80" as="geometry" />
        </mxCell>
        <mxCell id="pm6gfdA33jTRaZu8KEkV-10" value="" style="shape=document;whiteSpace=wrap;html=1;boundedLbl=1;" vertex="1" parent="1">
          <mxGeometry x="450" y="495" width="120" height="80" as="geometry" />
        </mxCell>
        <mxCell id="pm6gfdA33jTRaZu8KEkV-11" value="" style="triangle;whiteSpace=wrap;html=1;" vertex="1" parent="1">
          <mxGeometry x="60" y="550" width="60" height="80" as="geometry" />
        </mxCell>
        <mxCell id="pm6gfdA33jTRaZu8KEkV-12" value="" style="shape=internalStorage;whiteSpace=wrap;html=1;backgroundOutline=1;" vertex="1" parent="1">
          <mxGeometry x="274" y="510" width="80" height="80" as="geometry" />
        </mxCell>
        <mxCell id="pm6gfdA33jTRaZu8KEkV-13" value="" style="ellipse;shape=cloud;whiteSpace=wrap;html=1;" vertex="1" parent="1">
          <mxGeometry x="-40" y="520" width="120" height="80" as="geometry" />
        </mxCell>
      </root>
    </mxGraphModel>
  </diagram>
</mxfile>
